<svg width="24" height="24" viewBox="0 0 24 24" fill="none" xmlns="http://www.w3.org/2000/svg">
<path d="M21.1 13C21.1 13.4971 21.5029 13.9 22 13.9C22.4971 13.9 22.9 13.4971 22.9 13H22H21.1ZM14 21.9C14.4971 21.9 14.9 21.4971 14.9 21C14.9 20.5029 14.4971 20.1 14 20.1V21V21.9ZM16 4.5L16.7489 4.00078L16.7488 4.00076L16 4.5ZM16.0331 4.54969L15.2843 5.04891L15.2843 5.04892L16.0331 4.54969ZM7.96688 4.54969L7.21803 4.05046L7.21803 4.05046L7.96688 4.54969ZM8 4.5L7.25116 4.00077V4.00077L8 4.5ZM5.52067 5.99734L5.55854 6.89655H5.55854L5.52067 5.99734ZM7.81837 4.76765L8.54555 5.29795L8.54555 5.29794L7.81837 4.76765ZM13.5754 3.00546L13.5211 3.90382V3.90382L13.5754 3.00546ZM15.7857 4.18835L15.0683 4.73184L15.0683 4.73184L15.7857 4.18835ZM18.4793 5.99734L18.4415 6.89655H18.4415L18.4793 5.99734ZM16.1816 4.76765L16.9088 4.23736L16.9088 4.23735L16.1816 4.76765ZM10.4246 3.00546L10.4789 3.90382V3.90382L10.4246 3.00546ZM8.21434 4.18835L7.49697 3.64485L7.49697 3.64485L8.21434 4.18835ZM2.00678 8.79835L2.90475 8.85885L2.90475 8.85885L2.00678 8.79835ZM4.79835 6.00678L4.85885 6.90475H4.85885L4.79835 6.00678ZM2.87868 20.1213L2.24228 20.7577H2.24228L2.87868 20.1213ZM21.9932 8.79835L22.8912 8.73786V8.73786L21.9932 8.79835ZM19.2016 6.00679L19.1412 6.90475H19.1412L19.2016 6.00679ZM18.1 21C18.1 21.4971 18.5029 21.9 19 21.9C19.4971 21.9 19.9 21.4971 19.9 21H19H18.1ZM19.9 15C19.9 14.5029 19.4971 14.1 19 14.1C18.5029 14.1 18.1 14.5029 18.1 15H19H19.9ZM16 17.1C15.5029 17.1 15.1 17.5029 15.1 18C15.1 18.4971 15.5029 18.9 16 18.9V18V17.1ZM22 18.9C22.4971 18.9 22.9 18.4971 22.9 18C22.9 17.5029 22.4971 17.1 22 17.1V18V18.9ZM22 9.25694H21.1V13H22H22.9V9.25694H22ZM14 21V20.1H8V21V21.9H14V21ZM2 15H2.9V9.25694H2H1.1V15H2ZM10.8028 3V3.9H13.1972V3V2.1H10.8028V3ZM16 4.5L15.2511 4.99922L15.2843 5.04891L16.0331 4.54969L16.782 4.05047L16.7489 4.00078L16 4.5ZM7.96688 4.54969L8.71572 5.04892L8.74885 4.99923L8 4.5L7.25116 4.00077L7.21803 4.05046L7.96688 4.54969ZM5.25694 6V6.9C5.38289 6.9 5.47206 6.90019 5.55854 6.89655L5.52067 5.99734L5.48281 5.09814C5.44312 5.09981 5.39852 5.1 5.25694 5.1V6ZM7.96688 4.54969L7.21803 4.05046C7.1395 4.16826 7.1146 4.20526 7.0912 4.23736L7.81837 4.76765L8.54555 5.29794C8.59655 5.22801 8.64586 5.15372 8.71572 5.04892L7.96688 4.54969ZM5.52067 5.99734L5.55854 6.89655C6.74575 6.84655 7.84541 6.25803 8.54555 5.29795L7.81837 4.76765L7.0912 4.23735C6.7142 4.75433 6.12207 5.07122 5.4828 5.09814L5.52067 5.99734ZM13.1972 3V3.9C13.4003 3.9 13.4643 3.90039 13.5211 3.90382L13.5754 3.00546L13.6297 2.1071C13.5058 2.09961 13.3779 2.1 13.1972 2.1V3ZM16 4.5L16.7488 4.00076C16.6487 3.85049 16.578 3.74381 16.503 3.64485L15.7857 4.18835L15.0683 4.73184C15.1027 4.77726 15.1385 4.83028 15.2512 4.99924L16 4.5ZM13.5754 3.00546L13.5211 3.90382C14.133 3.9408 14.6981 4.24326 15.0683 4.73184L15.7857 4.18835L16.503 3.64485C15.8156 2.73749 14.766 2.17578 13.6297 2.1071L13.5754 3.00546ZM18.7431 6V5.1C18.6015 5.1 18.5569 5.09981 18.5172 5.09814L18.4793 5.99734L18.4415 6.89655C18.5279 6.90019 18.6171 6.9 18.7431 6.9V6ZM16.0331 4.54969L15.2843 5.04892C15.3541 5.15372 15.4035 5.22801 15.4545 5.29795L16.1816 4.76765L16.9088 4.23735C16.8854 4.20526 16.8605 4.16826 16.782 4.05046L16.0331 4.54969ZM18.4793 5.99734L18.5172 5.09814C17.8779 5.07122 17.2858 4.75433 16.9088 4.23736L16.1816 4.76765L15.4544 5.29795C16.1546 6.25803 17.2542 6.84655 18.4415 6.89655L18.4793 5.99734ZM10.8028 3V2.1C10.6221 2.1 10.4942 2.09961 10.3703 2.1071L10.4246 3.00546L10.4789 3.90382C10.5357 3.90039 10.5997 3.9 10.8028 3.9V3ZM8 4.5L8.74885 4.99923C8.86149 4.83026 8.89729 4.77726 8.9317 4.73184L8.21434 4.18835L7.49697 3.64485C7.42199 3.74381 7.35137 3.85046 7.25116 4.00077L8 4.5ZM10.4246 3.00546L10.3703 2.1071C9.23398 2.17578 8.18441 2.73749 7.49697 3.64485L8.21434 4.18835L8.9317 4.73184C9.30186 4.24326 9.86702 3.9408 10.4789 3.90382L10.4246 3.00546ZM2 9.25694H2.9C2.9 9.0037 2.90051 8.92173 2.90475 8.85885L2.00678 8.79835L1.10882 8.73786C1.09949 8.8764 1.1 9.03301 1.1 9.25694H2ZM5.25694 6V5.1C5.03301 5.1 4.8764 5.09949 4.73786 5.10882L4.79835 6.00678L4.85885 6.90475C4.92173 6.90051 5.0037 6.9 5.25694 6.9V6ZM2.00678 8.79835L2.90475 8.85885C2.97539 7.81028 3.81028 6.97539 4.85885 6.90475L4.79835 6.00678L4.73786 5.10882C2.79052 5.24001 1.24001 6.79052 1.10882 8.73786L2.00678 8.79835ZM8 21V20.1C6.56034 20.1 5.57114 20.0981 4.82811 19.9982C4.11097 19.9018 3.75932 19.7292 3.51508 19.4849L2.87868 20.1213L2.24228 20.7577C2.87672 21.3921 3.67152 21.6589 4.58826 21.7821C5.47911 21.9019 6.61123 21.9 8 21.9V21ZM2 15H1.1C1.1 16.3888 1.09809 17.5209 1.21786 18.4117C1.34111 19.3285 1.60785 20.1233 2.24228 20.7577L2.87868 20.1213L3.51508 19.4849C3.27083 19.2407 3.09823 18.889 3.00181 18.1719C2.90191 17.4289 2.9 16.4397 2.9 15H2ZM22 9.25694H22.9C22.9 9.03301 22.9005 8.8764 22.8912 8.73786L21.9932 8.79835L21.0953 8.85885C21.0995 8.92173 21.1 9.0037 21.1 9.25694H22ZM18.7431 6V6.9C18.9963 6.9 19.0783 6.90051 19.1412 6.90475L19.2016 6.00679L19.2621 5.10882C19.1236 5.09949 18.967 5.1 18.7431 5.1V6ZM21.9932 8.79835L22.8912 8.73786C22.76 6.79052 21.2095 5.24001 19.2621 5.10882L19.2016 6.00679L19.1412 6.90475C20.1897 6.97539 21.0246 7.81028 21.0953 8.85885L21.9932 8.79835ZM19 21H19.9V18H19H18.1V21H19ZM19 18H19.9V15H19H18.1V18H19ZM16 18V18.9H19V18V17.1H16V18ZM19 18V18.9H22V18V17.1H19V18ZM16 13H15.1C15.1 14.7121 13.7121 16.1 12 16.1V17V17.9C14.7062 17.9 16.9 15.7062 16.9 13H16ZM12 17V16.1C10.2879 16.1 8.9 14.7121 8.9 13H8H7.1C7.1 15.7062 9.29381 17.9 12 17.9V17ZM8 13H8.9C8.9 11.2879 10.2879 9.9 12 9.9V9V8.1C9.29381 8.1 7.1 10.2938 7.1 13H8ZM12 9V9.9C13.7121 9.9 15.1 11.2879 15.1 13H16H16.9C16.9 10.2938 14.7062 8.1 12 8.1V9Z" fill="#181B1E"/>
</svg>
